<svg xmlns="http://www.w3.org/2000/svg" viewBox="0 0 93 93"><defs><style>.cls-1{fill:#121926;}.cls-2{fill:#e5d4c7;}</style></defs><title>lock</title><g id="レイヤー_2" data-name="レイヤー 2"><g id="UI"><path class="cls-1" d="M60.57,36.82h-.91v-3c0-7.91-5.9-14.35-13.16-14.35S33.34,25.94,33.34,33.85v3h-.91a2.85,2.85,0,0,0-2.72,3V64.53a2.85,2.85,0,0,0,2.72,3H60.57a2.85,2.85,0,0,0,2.72-3V39.79A2.85,2.85,0,0,0,60.57,36.82Zm-22.69-3c0-5.18,3.87-9.4,8.62-9.4s8.62,4.22,8.62,9.4v3H37.88Z"/><path class="cls-1" d="M46.5,93A46.5,46.5,0,1,1,93,46.5,46.55,46.55,0,0,1,46.5,93Zm0-90A43.5,43.5,0,1,0,90,46.5,43.54,43.54,0,0,0,46.5,3Z"/><path class="cls-2" d="M48.23,49.67a4,4,0,1,0-3.46,0L42,60.09a1.59,1.59,0,0,0,1.54,2h5.88a1.59,1.59,0,0,0,1.54-2Z"/></g></g></svg>