<svg xmlns="http://www.w3.org/2000/svg" viewBox="0 0 25 35"><defs><style>.cls-1{fill:#121926;}</style></defs><title>man_fill</title><g id="レイヤー_2" data-name="レイヤー 2"><g id="UI"><path class="cls-1" d="M21.93,35H3.07A3,3,0,0,1,.64,33.81,3.1,3.1,0,0,1,.1,31.14l4.3-16.4a3.07,3.07,0,0,1,3-2.3H8.94a.51.51,0,0,0,.51-.51v-1a5.9,5.9,0,0,1-.94-9.3A5.8,5.8,0,0,1,12.87,0a5.92,5.92,0,0,1,5.47,5.62,5.85,5.85,0,0,1-1,3.52,5.94,5.94,0,0,1-1.8,1.73v1a.51.51,0,0,0,.51.51h1.58a3.07,3.07,0,0,1,3,2.3h0l4.3,16.4a3.08,3.08,0,0,1-.54,2.67A3,3,0,0,1,21.93,35Z"/></g></g></svg>