<svg xmlns="http://www.w3.org/2000/svg" viewBox="0 0 38.85 35"><defs><style>.cls-1{fill:#121926;}</style></defs><title>rank_frame</title><g id="レイヤー_2" data-name="レイヤー 2"><g id="UI"><path class="cls-1" d="M35.85,12.29H27.57a3.05,3.05,0,0,0-1,.18V3a3,3,0,0,0-3-3H15.3a3,3,0,0,0-3,3V21.76a2.89,2.89,0,0,0-1-.19H3a3,3,0,0,0-3,3V32a3,3,0,0,0,3,3h8.28a3,3,0,0,0,2-.79,2.94,2.94,0,0,0,2,.79h8.27a3,3,0,0,0,2-.78,3,3,0,0,0,2,.78h8.28a3,3,0,0,0,3-3V15.29A3,3,0,0,0,35.85,12.29ZM12.28,32a1,1,0,0,1-1,1H3a1,1,0,0,1-1-1V24.57a1,1,0,0,1,1-1h8.28a1,1,0,0,1,1,1Zm11.29,1H15.3a1,1,0,0,1-1-1V3a1,1,0,0,1,1-1h8.27a1,1,0,0,1,1,1V32A1,1,0,0,1,23.57,33Zm13.28-1a1,1,0,0,1-1,1H27.57a1,1,0,0,1-1-1V15.29a1,1,0,0,1,1-1h8.28a1,1,0,0,1,1,1Z"/></g></g></svg>